<?xml version="1.0" standalone="no"?>
<!DOCTYPE svg PUBLIC "-//W3C//DTD SVG 20010904//EN"
 "http://www.w3.org/TR/2001/REC-SVG-20010904/DTD/svg10.dtd">
<svg version="1.0" xmlns="http://www.w3.org/2000/svg"
 width="530.000000pt" height="530.000000pt" viewBox="0 0 530.000000 530.000000"
 preserveAspectRatio="xMidYMid meet">
<metadata>
Created by potrace 1.11, written by Peter Selinger 2001-2013
</metadata>
<g transform="translate(0.000000,530.000000) scale(0.100000,-0.100000)"
fill="#000000" stroke="none">
<path d="M2507 5284 c-1 -1 -38 -4 -82 -8 -248 -18 -568 -94 -772 -182 -18 -8
-50 -21 -70 -30 -209 -91 -440 -233 -629 -389 -103 -84 -294 -279 -374 -381
-184 -235 -310 -457 -410 -720 -33 -85 -82 -244 -95 -304 -2 -8 -8 -35 -14
-60 -14 -64 -20 -98 -27 -155 -4 -27 -8 -52 -9 -55 -10 -18 -20 -202 -19 -370
0 -174 5 -261 18 -340 3 -14 7 -43 10 -65 2 -22 7 -47 10 -55 3 -8 7 -32 10
-52 9 -62 24 -119 61 -244 255 -839 919 -1504 1757 -1758 65 -20 128 -38 140
-40 13 -3 34 -8 48 -11 33 -7 166 -32 210 -39 178 -28 581 -28 746 0 361 60
648 158 932 318 106 60 324 210 372 257 8 8 29 25 45 37 73 56 268 260 368
387 113 142 249 372 335 565 43 98 123 329 137 399 2 9 12 61 24 116 11 55 23
118 26 140 4 22 8 51 10 64 18 109 25 406 12 551 -36 409 -163 803 -369 1143
-281 466 -692 830 -1184 1051 -170 76 -409 154 -557 180 -220 39 -295 47 -505
50 -84 1 -153 1 -155 0z m340 -359 c125 -12 151 -16 228 -30 590 -111 1140
-475 1473 -973 86 -128 152 -248 205 -372 101 -237 158 -461 182 -720 5 -54 6
-329 1 -383 -45 -485 -224 -920 -528 -1285 -514 -614 -1311 -918 -2098 -802
-113 17 -132 21 -247 51 -306 78 -620 238 -871 441 -99 80 -261 242 -338 338
-240 299 -431 727 -480 1075 -2 17 -7 44 -10 62 -24 150 -23 439 1 623 5 32
18 110 29 168 15 76 76 283 96 327 5 11 21 49 36 85 167 408 491 792 879 1043
230 148 515 263 785 316 144 28 160 30 280 37 58 4 106 7 107 8 5 4 215 -3
270 -9z"/>
<path d="M2510 4542 l0 -159 -57 -6 c-257 -29 -515 -119 -740 -258 -135 -84
-336 -260 -414 -364 -13 -16 -26 -32 -30 -35 -4 -3 -36 -49 -73 -103 -148
-218 -243 -467 -280 -732 -20 -145 -14 -399 13 -545 101 -538 443 -990 937
-1239 158 -79 376 -147 543 -168 61 -7 84 -10 94 -12 5 0 8 -54 7 -118 -1 -65
-1 -137 -1 -161 l1 -42 168 2 167 3 1 153 c1 84 4 155 8 159 3 3 30 10 59 14
92 14 119 20 207 46 222 64 425 168 613 314 55 42 257 238 257 249 0 15 -436
439 -754 733 l-41 39 -25 -33 c-172 -227 -467 -321 -730 -233 -304 102 -490
423 -426 735 47 225 227 422 445 485 81 24 89 25 181 25 97 1 128 -4 214 -32
128 -43 253 -137 319 -240 11 -16 23 -29 29 -29 6 0 38 27 72 59 33 33 84 80
111 106 159 150 423 404 513 493 l105 103 -19 22 c-62 73 -151 159 -235 226
-252 204 -535 329 -854 377 -22 3 -42 8 -44 10 -2 2 -4 72 -5 156 l-1 153
-167 3 -168 2 0 -158z m285 -537 c133 -14 340 -78 470 -145 66 -35 193 -118
202 -133 3 -5 -54 -69 -127 -142 l-133 -133 -59 38 c-135 88 -316 141 -495
145 -269 6 -509 -86 -702 -269 -269 -257 -366 -617 -267 -986 11 -40 37 -102
66 -161 138 -272 398 -466 710 -526 14 -3 86 -7 160 -8 114 -2 150 1 230 20
107 27 215 69 279 110 l44 27 81 -80 c44 -45 106 -105 137 -134 l57 -53 -43
-32 c-120 -89 -326 -176 -508 -214 -108 -22 -315 -30 -434 -17 -234 27 -498
136 -678 281 -56 46 -198 187 -233 232 -87 111 -179 285 -221 415 -81 247 -86
543 -14 790 106 366 356 666 700 839 238 120 498 165 778 136z"/>
<path d="M3804 2995 l1 -205 -202 0 -203 0 0 -140 0 -140 203 0 202 0 -1 -205
-1 -206 146 3 146 3 2 190 c0 105 2 196 2 203 1 9 48 12 201 12 l200 0 0 140
0 140 -200 0 c-153 0 -200 3 -201 13 -1 6 -2 98 -2 202 l-2 190 -146 3 -145 3
0 -206z"/>
</g>
</svg>
